<svg width="19" height="19" viewBox="0 0 19 19" fill="none" xmlns="http://www.w3.org/2000/svg">
<g id="copy">
<path id="Vector" d="M15.8333 7.125H8.70833C7.83388 7.125 7.125 7.83388 7.125 8.70833V15.8333C7.125 16.7078 7.83388 17.4167 8.70833 17.4167H15.8333C16.7078 17.4167 17.4167 16.7078 17.4167 15.8333V8.70833C17.4167 7.83388 16.7078 7.125 15.8333 7.125Z" stroke="white" stroke-opacity="0.8" stroke-linecap="round" stroke-linejoin="round"/>
<path id="Vector_2" d="M3.95837 11.875H3.16671C2.74678 11.875 2.34405 11.7082 2.04712 11.4113C1.75019 11.1144 1.58337 10.7116 1.58337 10.2917V3.16671C1.58337 2.74678 1.75019 2.34405 2.04712 2.04712C2.34405 1.75019 2.74678 1.58337 3.16671 1.58337H10.2917C10.7116 1.58337 11.1144 1.75019 11.4113 2.04712C11.7082 2.34405 11.875 2.74678 11.875 3.16671V3.95837" stroke="white" stroke-opacity="0.8" stroke-linecap="round" stroke-linejoin="round"/>
</g>
</svg>
