<svg width="203" height="40" viewBox="0 0 203 40" fill="none" xmlns="http://www.w3.org/2000/svg">
<g clip-path="url(#clip0_386_2)">
<path opacity="0.9" d="M30.9045 23.9073C30.4562 22.6521 29.7605 21.5198 28.8153 20.5104C27.8701 19.501 26.6541 18.6226 25.1691 17.8731C24.3057 17.4379 23.3411 17.0531 22.2751 16.7186C21.5072 16.4748 20.6868 16.2572 19.8117 16.0658L16.719 15.3808C15.8225 15.1894 15.0488 14.9738 14.3979 14.732C13.747 14.4923 13.215 14.2223 12.796 13.9241C12.3789 13.6259 12.0749 13.2895 11.8859 12.9147C11.6949 12.54 11.613 12.1189 11.6364 11.6494C11.6481 11.0772 11.8138 10.5715 12.1334 10.1263C12.453 9.68301 12.948 9.33042 13.6164 9.07052C14.2849 8.81061 15.1482 8.67965 16.2025 8.67965C17.861 8.67965 19.0965 9.03425 19.9131 9.74547C20.3613 10.1363 20.7024 10.6118 20.9323 11.1719C21.1058 11.589 21.2188 12.0524 21.2695 12.5641L21.3065 12.7152H31.0798C31.0759 11.8005 30.9941 10.9281 30.8343 10.096C30.5537 8.60712 30.0236 7.24916 29.248 6.02418C28.0397 4.11417 26.3228 2.63331 24.1011 1.57958C21.8794 0.525856 19.2466 0 16.2025 0C13.1585 0 10.5782 0.519812 8.27666 1.56145C5.97509 2.60107 4.17633 4.05171 2.88231 5.90934C1.58634 7.76897 0.94518 9.93687 0.958821 12.411C0.94518 15.4553 1.9001 17.859 3.82164 19.6159C5.74124 21.3727 8.37215 22.6259 11.7105 23.3754L15.4659 24.2116C16.8651 24.5299 17.976 24.8684 18.7984 25.231C19.6208 25.5917 20.2132 25.9987 20.5757 26.45C20.9382 26.8993 21.1253 27.4231 21.1369 28.0195C21.1253 28.6541 20.9284 29.2183 20.5484 29.7139C20.1684 30.2075 19.6091 30.5964 18.8724 30.8744C18.1358 31.1545 17.2218 31.2935 16.1285 31.2935C14.8286 31.2935 13.708 31.084 12.7687 30.6649C11.8294 30.2458 11.1025 29.6313 10.588 28.8193C10.0715 28.0074 9.7831 27.004 9.72268 25.8113H0C0.0116929 29.0732 0.691832 31.7468 2.03457 33.8341C3.37926 35.9214 5.26962 37.4668 7.70565 38.4701C10.1417 39.4715 12.9987 39.9731 16.2766 39.9731C19.5545 39.9731 22.203 39.5097 24.4792 38.5829C25.4906 38.1739 26.3988 37.6783 27.2017 37.096C28.2092 36.3727 29.0531 35.5165 29.7352 34.5292C30.9629 32.7522 31.5826 30.5823 31.5963 28.0195C31.5826 26.5346 31.3527 25.1645 30.9045 23.9073Z" fill="white"/>
<path opacity="0.8" d="M54.8944 10.0959L51.79 27.826H51.5678L47.7968 10.0959H37.9553L34.3246 28.0274H34.1024L30.8401 10.0959H20.6731L20.9323 11.1718C21.1057 11.5889 21.2188 12.0523 21.2694 12.564L21.3065 12.7152L22.275 16.7185L27.2017 37.0959L27.7863 39.5117H38.7387L42.724 23.7964H43.0203L47.0037 39.5117H57.958L65.0712 10.0959H54.8944Z" fill="white"/>
<path opacity="0.7" d="M62.0291 39.5117L54.9159 10.0959H65.0829L68.3433 28.0274H68.5655L72.1981 10.0959H82.0396L85.8087 27.826H86.0308L89.1353 10.0959H99.3121L92.1988 39.5117H81.2445L77.2592 23.7964H76.9629L72.9776 39.5117H62.0233H62.0291Z" fill="white"/>
<path opacity="0.6" d="M96.3128 39.5117L89.1996 10.0959H99.3666L102.627 28.0274H102.849L106.482 10.0959H116.323L120.092 27.826H120.315L123.419 10.0959H133.596L126.483 39.5117H115.528L111.543 23.7964H111.249L107.263 39.5117H96.3089H96.3128Z" fill="white"/>
<path opacity="0.5" d="M131.889 39.9148C130.084 39.9148 128.49 39.6066 127.108 38.992C125.726 38.3775 124.643 37.4407 123.858 36.1835C123.072 34.9262 122.678 33.3265 122.678 31.3843C122.678 29.7845 122.942 28.4165 123.47 27.2802C123.998 26.1438 124.734 25.213 125.68 24.4897C126.625 23.7664 127.728 23.2143 128.987 22.8336C130.246 22.4528 131.606 22.2049 133.068 22.0901C134.652 21.9632 135.927 21.808 136.889 21.6227C137.854 21.4393 138.55 21.1774 138.98 20.8409C139.411 20.5045 139.738 19.4991 139.738 19.4991V19.4628C139.738 18.7012 139.456 18.117 138.895 17.71C138.331 17.303 137.61 17.0995 136.728 17.0995C135.761 17.0995 134.974 17.3191 134.368 17.7563C133.761 18.1955 133.397 18.8644 133.276 19.7671H123.951C124.074 17.988 124.621 16.346 125.594 14.8409C126.566 13.3359 127.989 12.129 129.862 11.2204C131.735 10.3117 134.071 9.8584 136.876 9.8584C138.895 9.8584 140.707 10.1042 142.309 10.5918C143.913 11.0814 145.277 11.7603 146.403 12.6307C147.53 13.5011 148.389 14.5166 148.984 15.6811C149.578 16.8436 149.874 18.1049 149.874 19.4648V39.5139H140.325V35.4843H140.07C139.505 36.4393 138.821 37.3218 138.016 37.9947C137.211 38.6677 136.297 39.1573 135.272 39.4615C134.247 39.7657 133.12 39.9188 131.891 39.9188L131.889 39.9148ZM135.243 33.2862C136.016 33.2862 136.743 33.121 137.425 32.7906C138.107 32.4601 138.663 31.9847 139.091 31.3621C139.522 30.7395 139.737 29.984 139.737 29.0955V26.6576C139.466 26.7724 139.181 26.8792 138.879 26.982C138.579 27.0827 138.259 27.1794 137.92 27.2681C137.583 27.3567 137.226 27.4393 136.852 27.5159C136.478 27.5925 136.088 27.661 135.683 27.7254C134.898 27.8524 134.254 28.0579 133.758 28.344C133.261 28.6301 132.892 28.9786 132.653 29.3916C132.413 29.8047 132.294 30.264 132.294 30.7718C132.294 31.5837 132.571 32.2063 133.122 32.6374C133.674 33.0686 134.381 33.2842 135.241 33.2842L135.243 33.2862Z" fill="white"/>
<path opacity="0.4" d="M162.834 39.0121C162.38 39.1512 161.735 39.3224 160.897 39.5259C160.059 39.7294 159.063 39.8624 157.913 39.9268C155.588 40.0538 153.636 39.8019 152.057 39.1733C150.478 38.5447 149.292 37.5514 148.495 36.1935C147.699 34.8355 147.314 33.133 147.339 31.09V17.7522H143.636V10.0961H147.339V3.24585H157.473V10.0961H162.345V17.7522H157.473V30.0988C157.473 30.5058 157.539 30.8442 157.675 31.1182C157.81 31.3902 158.016 31.5937 158.299 31.7267C158.58 31.8597 158.942 31.9282 159.383 31.9282C159.689 31.9282 160.045 31.8899 160.456 31.8133C160.866 31.7368 161.17 31.6743 161.365 31.6219L162.834 39.0121Z" fill="white"/>
<path opacity="0.3" d="M174.188 29.7803C174.139 29.873 174.09 29.9636 174.038 30.0503C173.703 30.6184 173.287 31.0577 172.79 31.3679C172.218 31.7266 171.561 31.9059 170.816 31.9059C169.939 31.9059 169.173 31.644 168.515 31.1221C167.858 30.6003 167.345 29.8125 166.981 28.7608C166.615 27.7091 166.431 26.3894 166.431 24.8038C166.431 23.2182 166.615 21.8985 166.981 20.8468C167.345 19.7951 167.858 19.0093 168.515 18.4855C169.173 17.9636 169.939 17.7017 170.816 17.7017C171.937 17.7017 172.855 18.1027 173.566 18.9005C173.74 19.0959 173.897 19.3135 174.038 19.5513C174.468 20.2907 174.735 21.2356 174.837 22.3861H184.191C184.179 19.8676 183.618 17.6735 182.509 15.8038C181.402 13.9341 179.839 12.4855 177.824 11.4599C176.68 10.8777 175.418 10.4606 174.038 10.2088C172.985 10.0153 171.861 9.92065 170.67 9.92065C167.626 9.92065 165.019 10.5472 162.851 11.7984C160.682 13.0516 159.02 14.8025 157.864 17.0509C156.707 19.2974 156.128 21.9086 156.128 24.8783C156.128 27.8481 156.707 30.4613 157.864 32.7078C159.02 34.9562 160.682 36.7071 162.851 37.9603C165.019 39.2135 167.626 39.838 170.67 39.838C171.943 39.838 173.135 39.7292 174.244 39.5117C175.558 39.2578 176.756 38.8488 177.842 38.2907C179.845 37.2571 181.396 35.7944 182.492 33.8985C183.503 32.1497 184.064 30.1188 184.172 27.8058V27.2215H174.837C174.763 28.2289 174.546 29.0812 174.188 29.7803Z" fill="white"/>
<path opacity="0.2" d="M201.467 15.0866C200.641 13.4304 199.482 12.1309 197.987 11.188C196.492 10.2471 194.734 9.7736 192.713 9.7736C190.692 9.7736 188.798 10.2995 187.298 11.3512C185.797 12.4029 184.725 13.8636 184.08 15.7373H183.782V0.425049H174.038V39.5117H184.172V23.057C184.183 22.0919 184.359 21.2639 184.698 20.5708C185.035 19.8797 185.514 19.3458 186.134 18.9711C186.756 18.5983 187.477 18.4109 188.301 18.4109C189.603 18.4109 190.609 18.822 191.316 19.648C192.021 20.4741 192.368 21.6104 192.357 23.057V39.5117H202.685V20.7823C202.697 18.6426 202.292 16.7447 201.467 15.0866Z" fill="white"/>
</g>
<defs>
<clipPath id="clip0_386_2">
<rect width="203" height="40" fill="white"/>
</clipPath>
</defs>
</svg>
