<svg width="298" height="39" viewBox="0 0 298 39" fill="none" xmlns="http://www.w3.org/2000/svg">
<path opacity="0.2" d="M284.619 38.1735C281.702 38.1735 279.188 37.6162 277.078 36.5017C274.98 35.3754 273.361 33.7629 272.223 31.6644C271.097 29.554 270.533 27.0286 270.533 24.0883C270.533 21.2665 271.103 18.8004 272.241 16.69C273.379 14.5796 274.985 12.9375 277.06 11.7638C279.135 10.59 281.583 10.0031 284.405 10.0031C286.468 10.0031 288.336 10.3232 290.007 10.9635C291.679 11.6037 293.108 12.5344 294.293 13.7556C295.479 14.9649 296.392 16.4351 297.032 18.1661C297.672 19.8971 297.992 21.8475 297.992 24.0171V26.2935H273.592V20.8871H288.958C288.946 20.1046 288.745 19.4169 288.353 18.8241C287.974 18.2195 287.458 17.7511 286.806 17.4192C286.166 17.0753 285.437 16.9034 284.619 16.9034C283.824 16.9034 283.095 17.0753 282.431 17.4192C281.767 17.7511 281.234 18.2135 280.831 18.8063C280.439 19.3992 280.232 20.0927 280.208 20.8871V26.7204C280.208 27.5977 280.392 28.3802 280.759 29.0679C281.127 29.7556 281.655 30.295 282.342 30.6863C283.03 31.0775 283.86 31.2731 284.832 31.2731C285.508 31.2731 286.124 31.1783 286.682 30.9886C287.251 30.7989 287.737 30.5262 288.14 30.1705C288.543 29.803 288.839 29.3643 289.029 28.8545H297.992C297.684 30.7515 296.955 32.3995 295.805 33.7985C294.655 35.1857 293.131 36.2646 291.234 37.0353C289.349 37.7941 287.144 38.1735 284.619 38.1735Z" fill="white"/>
<path opacity="0.2" d="M226.692 37.6755V10.3588H236.011V15.5518H236.296C236.865 13.8445 237.837 12.4929 239.213 11.497C240.588 10.5011 242.224 10.0031 244.121 10.0031C246.042 10.0031 247.696 10.5129 249.083 11.5326C250.47 12.5403 251.306 13.8801 251.59 15.5518H251.875C252.337 13.8801 253.321 12.5403 254.827 11.5326C256.333 10.5129 258.099 10.0031 260.127 10.0031C262.747 10.0031 264.869 10.8449 266.494 12.5285C268.13 14.2121 268.948 16.4529 268.948 19.251V37.6755H259.131V21.7408C259.131 20.5433 258.829 19.6066 258.224 18.9308C257.619 18.2432 256.807 17.8993 255.788 17.8993C254.78 17.8993 253.979 18.2432 253.387 18.9308C252.806 19.6066 252.515 20.5433 252.515 21.7408V37.6755H243.125V21.7408C243.125 20.5433 242.823 19.6066 242.218 18.9308C241.613 18.2432 240.801 17.8993 239.782 17.8993C239.106 17.8993 238.525 18.0535 238.039 18.3617C237.553 18.67 237.173 19.1146 236.901 19.6956C236.64 20.2647 236.509 20.9464 236.509 21.7408V37.6755H226.692Z" fill="white"/>
<path opacity="0.1" d="M217.523 37.9759C216.147 37.9759 214.968 37.4957 213.984 36.5354C213.012 35.5632 212.531 34.3835 212.543 32.9963C212.531 31.6447 213.012 30.4887 213.984 29.5284C214.968 28.568 216.147 28.0878 217.523 28.0878C218.827 28.0878 219.977 28.568 220.973 29.5284C221.981 30.4887 222.491 31.6447 222.502 32.9963C222.491 33.9211 222.247 34.7629 221.773 35.5217C221.311 36.2686 220.706 36.8673 219.959 37.3179C219.212 37.7566 218.4 37.9759 217.523 37.9759Z" fill="white"/>
<path opacity="0.2" d="M190.64 22.4601V37.8258H180.823V1.4035H190.284V15.7021H190.569C191.185 13.9592 192.211 12.6017 193.645 11.6295C195.08 10.6454 196.805 10.1534 198.82 10.1534C200.753 10.1534 202.431 10.5921 203.853 11.4694C205.288 12.3468 206.397 13.5561 207.179 15.0974C207.973 16.6387 208.365 18.4053 208.353 20.3971V37.8258H198.536V22.4601C198.548 21.1085 198.21 20.0474 197.522 19.2767C196.846 18.5061 195.88 18.1208 194.623 18.1208C193.829 18.1208 193.129 18.2986 192.525 18.6543C191.932 18.9981 191.47 19.4961 191.138 20.1482C190.818 20.7884 190.652 21.559 190.64 22.4601Z" fill="white"/>
<path opacity="0.3" d="M170.06 38.1735C167.096 38.1735 164.558 37.5866 162.448 36.4128C160.338 35.2272 158.719 33.5792 157.593 31.4688C156.466 29.3465 155.903 26.8863 155.903 24.0883C155.903 21.2902 156.466 18.836 157.593 16.7256C158.719 14.6033 160.338 12.9553 162.448 11.7815C164.558 10.5959 167.096 10.0031 170.06 10.0031C172.739 10.0031 175.057 10.4892 177.013 11.4614C178.981 12.4218 180.505 13.7852 181.584 15.5518C182.663 17.3065 183.208 19.3695 183.22 21.7408H174.114C173.984 20.3062 173.569 19.2154 172.87 18.4684C172.182 17.7096 171.293 17.3302 170.202 17.3302C169.348 17.3302 168.601 17.5792 167.961 18.0772C167.321 18.5633 166.823 19.3043 166.467 20.3002C166.112 21.2843 165.934 22.5233 165.934 24.0171C165.934 25.511 166.112 26.7559 166.467 27.7519C166.823 28.7359 167.321 29.4769 167.961 29.9749C168.601 30.461 169.348 30.704 170.202 30.704C170.925 30.704 171.565 30.5381 172.123 30.2061C172.68 29.8623 173.13 29.3643 173.474 28.7122C173.83 28.0483 174.043 27.242 174.114 26.2935H183.22C183.184 28.7003 182.633 30.7989 181.566 32.5892C180.499 34.3676 178.987 35.7429 177.031 36.7151C175.087 37.6874 172.763 38.1735 170.06 38.1735Z" fill="white"/>
<path opacity="0.4" d="M162.835 10.4354V17.5492H144.837V10.4354H162.835ZM148.323 3.89081H158.14V28.9667C158.14 29.3461 158.205 29.6662 158.335 29.927C158.466 30.176 158.667 30.3657 158.94 30.4961C159.213 30.6147 159.563 30.674 159.989 30.674C160.286 30.674 160.63 30.6384 161.021 30.5673C161.424 30.4961 161.72 30.4369 161.91 30.3894L163.333 37.2897C162.894 37.4202 162.266 37.5802 161.448 37.7699C160.641 37.9596 159.681 38.0841 158.567 38.1434C156.314 38.2619 154.423 38.0308 152.893 37.4498C151.364 36.857 150.214 35.9263 149.443 34.6577C148.673 33.389 148.299 31.8003 148.323 29.8915V3.89081Z" fill="white"/>
<path opacity="0.5" d="M132.636 38.1023C130.893 38.1023 129.351 37.8178 128.012 37.2487C126.684 36.6677 125.64 35.7904 124.882 34.6166C124.123 33.4428 123.743 31.9489 123.743 30.1349C123.743 28.6411 123.998 27.3665 124.508 26.3113C125.018 25.2443 125.729 24.3728 126.642 23.697C127.555 23.0212 128.616 22.5055 129.826 22.1498C131.047 21.7941 132.363 21.5629 133.774 21.4562C135.303 21.3376 136.53 21.1954 137.455 21.0294C138.392 20.8515 139.068 20.6085 139.483 20.3002C139.897 19.9801 140.105 19.5592 140.105 19.0375V18.9664C140.105 18.255 139.832 17.7096 139.287 17.3302C138.742 16.9508 138.042 16.7611 137.188 16.7611C136.252 16.7611 135.487 16.9686 134.894 17.3836C134.313 17.7867 133.963 18.4092 133.845 19.2509H124.81C124.929 17.5911 125.457 16.0616 126.393 14.6626C127.342 13.2517 128.723 12.1254 130.537 11.2836C132.351 10.4299 134.616 10.0031 137.331 10.0031C139.287 10.0031 141.042 10.2343 142.595 10.6967C144.148 11.1472 145.47 11.7815 146.561 12.5996C147.651 13.4058 148.481 14.3543 149.05 15.4451C149.631 16.524 149.922 17.6978 149.922 18.9664V37.6755H140.745V33.8341H140.532C139.986 34.8537 139.322 35.6777 138.54 36.3061C137.769 36.9345 136.886 37.3909 135.89 37.6755C134.906 37.96 133.821 38.1023 132.636 38.1023ZM135.837 31.9134C136.584 31.9134 137.283 31.7592 137.935 31.451C138.599 31.1427 139.139 30.6981 139.554 30.1172C139.969 29.5362 140.176 28.8308 140.176 28.0008V25.7244C139.915 25.8311 139.637 25.9319 139.34 26.0268C139.056 26.1216 138.747 26.2105 138.415 26.2935C138.095 26.3765 137.752 26.4536 137.384 26.5247C137.028 26.5959 136.655 26.6611 136.264 26.7204C135.505 26.8389 134.882 27.0345 134.396 27.3072C133.922 27.5681 133.566 27.8941 133.329 28.2854C133.104 28.6648 132.991 29.0916 132.991 29.5658C132.991 30.3246 133.258 30.9056 133.792 31.3087C134.325 31.7118 135.007 31.9134 135.837 31.9134Z" fill="white"/>
<path opacity="0.8" d="M30.9796 37.8257L24.1504 10.509H33.9673L37.0974 27.1551H37.3108L40.7965 10.509H50.3289L53.9569 27.0129H54.1703L57.1581 10.509H66.975L60.1458 37.8257H49.5464L45.705 23.1715H45.4204L41.579 37.8257H30.9796Z" fill="white"/>
<path opacity="0.7" d="M64.0047 37.8257L57.1755 10.509H66.9925L70.1225 27.1551H70.3359L73.8216 10.509H83.354L86.982 27.0129H87.1954L90.1832 10.509H100L93.171 37.8257H82.5715L78.7301 23.1715H78.4456L74.6042 37.8257H64.0047Z" fill="white"/>
<path opacity="0.6" d="M97.0308 37.8257L90.2017 10.509H100.019L103.149 27.1551H103.362L106.848 10.509H116.38L120.008 27.0129H120.222L123.209 10.509H133.026L126.197 37.8257H115.598L111.756 23.1715H111.472L107.63 37.8257H97.0308Z" fill="white"/>
<path opacity="0.9" d="M20.5587 12.7064C20.4638 11.5208 20.0192 10.596 19.2248 9.93204C18.4423 9.2681 17.2508 8.93612 15.6502 8.93612C14.6306 8.93612 13.7947 9.06061 13.1426 9.30959C12.5024 9.54672 12.0281 9.87276 11.7199 10.2877C11.4116 10.7027 11.2515 11.1769 11.2397 11.7105C11.216 12.1492 11.293 12.5463 11.4709 12.902C11.6606 13.2459 11.957 13.56 12.3601 13.8446C12.7632 14.1173 13.2789 14.3663 13.9073 14.5915C14.5357 14.8168 15.2826 15.0184 16.1481 15.1962L19.1359 15.8364C21.1515 16.2633 22.8765 16.8264 24.3111 17.5259C25.7457 18.2255 26.9195 19.0495 27.8324 19.998C28.7454 20.9346 29.4152 21.9898 29.8421 23.1636C30.2807 24.3373 30.506 25.6178 30.5179 27.005C30.506 29.3999 29.9073 31.4273 28.7217 33.0872C27.536 34.7471 25.8406 36.0098 23.6353 36.8753C21.4419 37.7408 18.8039 38.1735 15.7213 38.1735C12.5557 38.1735 9.79322 37.7052 7.43384 36.7686C5.08631 35.8319 3.26046 34.3914 1.95627 32.447C0.663948 30.4907 0.0118562 27.989 0 24.942H9.39011C9.44939 26.0565 9.72801 26.9931 10.226 27.7519C10.7239 28.5107 11.4235 29.0857 12.3245 29.477C13.2375 29.8682 14.3223 30.0639 15.5791 30.0639C16.6343 30.0639 17.5175 29.9335 18.2289 29.6726C18.9403 29.4118 19.4797 29.0502 19.8473 28.5878C20.2148 28.1254 20.4045 27.5978 20.4164 27.005C20.4045 26.4477 20.2208 25.9616 19.8651 25.5467C19.5212 25.1198 18.9521 24.7404 18.1578 24.4085C17.3634 24.0646 16.2904 23.7445 14.9388 23.4481L11.3108 22.6656C8.08593 21.9661 5.54277 20.7983 3.68135 19.1621C1.83178 17.5141 0.912928 15.2673 0.924784 12.4218C0.912928 10.1099 1.52945 8.0884 2.77435 6.3574C4.03111 4.61453 5.76804 3.257 7.98515 2.28479C10.2141 1.31258 12.7691 0.826477 15.6502 0.826477C18.5905 0.826477 21.1337 1.31851 23.2797 2.30257C25.4256 3.28664 27.0796 4.67382 28.2415 6.4641C29.4152 8.24253 30.0081 10.3233 30.0199 12.7064H20.5587Z" fill="white"/>
</svg>
