<svg width="300" height="40" viewBox="0 0 300 40" fill="none" xmlns="http://www.w3.org/2000/svg">
<g clip-path="url(#clip0_370_136)">
<path opacity="0.9" d="M30.9045 23.9073C30.4562 22.6521 29.7605 21.5198 28.8153 20.5104C27.8701 19.501 26.6541 18.6226 25.1691 17.8731C24.3057 17.4379 23.3411 17.0531 22.2751 16.7186C21.5072 16.4748 20.6868 16.2572 19.8117 16.0658L16.719 15.3808C15.8225 15.1894 15.0488 14.9738 14.3979 14.732C13.747 14.4923 13.215 14.2223 12.796 13.9241C12.3789 13.6259 12.0749 13.2895 11.8859 12.9147C11.6949 12.54 11.613 12.1189 11.6364 11.6494C11.6481 11.0772 11.8138 10.5715 12.1334 10.1263C12.453 9.68301 12.948 9.33042 13.6164 9.07052C14.2849 8.81061 15.1482 8.67965 16.2025 8.67965C17.861 8.67965 19.0965 9.03425 19.9131 9.74547C20.3613 10.1363 20.7024 10.6118 20.9323 11.1719C21.1058 11.589 21.2188 12.0524 21.2695 12.5641L21.3065 12.7152H31.0798C31.0759 11.8005 30.9941 10.9281 30.8343 10.096C30.5537 8.60712 30.0236 7.24916 29.248 6.02418C28.0397 4.11417 26.3228 2.63331 24.1011 1.57958C21.8794 0.525856 19.2466 0 16.2025 0C13.1585 0 10.5782 0.519812 8.27666 1.56145C5.97509 2.60107 4.17633 4.05171 2.88231 5.90934C1.58634 7.76897 0.94518 9.93687 0.958821 12.411C0.94518 15.4553 1.9001 17.859 3.82164 19.6159C5.74124 21.3727 8.37215 22.6259 11.7105 23.3754L15.4659 24.2116C16.8651 24.5299 17.976 24.8684 18.7984 25.231C19.6208 25.5917 20.2132 25.9987 20.5757 26.45C20.9382 26.8993 21.1253 27.4231 21.1369 28.0195C21.1253 28.6541 20.9284 29.2183 20.5484 29.7139C20.1684 30.2075 19.6091 30.5964 18.8724 30.8744C18.1358 31.1545 17.2218 31.2935 16.1285 31.2935C14.8286 31.2935 13.708 31.084 12.7687 30.6649C11.8294 30.2458 11.1025 29.6313 10.588 28.8193C10.0715 28.0074 9.7831 27.004 9.72268 25.8113H0C0.0116929 29.0732 0.691832 31.7468 2.03457 33.8341C3.37926 35.9214 5.26962 37.4668 7.70565 38.4701C10.1417 39.4715 12.9987 39.9731 16.2766 39.9731C19.5545 39.9731 22.203 39.5097 24.4792 38.5829C25.4906 38.1739 26.3988 37.6783 27.2017 37.096C28.2092 36.3727 29.0531 35.5165 29.7352 34.5292C30.9629 32.7522 31.5826 30.5823 31.5963 28.0195C31.5826 26.5346 31.3527 25.1645 30.9045 23.9073Z" fill="white"/>
<path opacity="0.8" d="M54.8947 10.096L51.7902 27.8261H51.568L47.7971 10.096H37.9555L34.3249 28.0275H34.1027L30.8404 10.096H20.6733L20.9325 11.1719C21.106 11.589 21.219 12.0524 21.2697 12.5641L21.3067 12.7152L22.2753 16.7186L27.2019 37.096L27.7865 39.5118H38.7389L42.7243 23.7965H43.0205L47.0039 39.5118H57.9582L65.0714 10.096H54.8947Z" fill="white"/>
<path opacity="0.7" d="M62.0292 39.5118L54.916 10.096H65.083L68.3434 28.0275H68.5656L72.1982 10.096H82.0397L85.8088 27.8261H86.0309L89.1354 10.096H99.3122L92.199 39.5118H81.2446L77.2593 23.7965H76.9631L72.9777 39.5118H62.0234H62.0292Z" fill="white"/>
<path opacity="0.6" d="M96.3129 39.5118L89.1997 10.096H99.3667L102.627 28.0275H102.849L106.482 10.096H116.323L120.092 27.8261H120.315L123.419 10.096H133.596L126.483 39.5118H115.528L111.543 23.7965H111.249L107.263 39.5118H96.309H96.3129Z" fill="white"/>
<path opacity="0.5" d="M131.888 39.9147C130.084 39.9147 128.49 39.6065 127.108 38.992C125.726 38.3775 124.643 37.4406 123.857 36.1834C123.072 34.9261 122.678 33.3264 122.678 31.3842C122.678 29.7844 122.941 28.4164 123.469 27.2801C123.998 26.1437 124.734 25.2129 125.679 24.4896C126.625 23.7663 127.728 23.2143 128.987 22.8335C130.246 22.4527 131.606 22.2048 133.067 22.09C134.652 21.9631 135.926 21.8079 136.889 21.6226C137.854 21.4392 138.549 21.1773 138.98 20.8408C139.411 20.5044 139.738 19.499 139.738 19.499V19.4627C139.738 18.7012 139.456 18.1169 138.894 17.7099C138.331 17.3029 137.61 17.0994 136.727 17.0994C135.761 17.0994 134.973 17.319 134.367 17.7562C133.761 18.1954 133.397 18.8644 133.276 19.767H123.951C124.074 17.9879 124.621 16.3459 125.594 14.8408C126.566 13.3358 127.989 12.129 129.862 11.2203C131.734 10.3116 134.071 9.85831 136.875 9.85831C138.894 9.85831 140.707 10.1041 142.309 10.5917C143.913 11.0813 145.277 11.7603 146.403 12.6306C147.53 13.501 148.389 14.5165 148.983 15.681C149.578 16.8435 149.874 18.1048 149.874 19.4648V39.5138H140.325V35.4842H140.07C139.504 36.4392 138.82 37.3217 138.015 37.9946C137.211 38.6676 136.297 39.1572 135.272 39.4614C134.246 39.7656 133.12 39.9188 131.89 39.9188L131.888 39.9147ZM135.242 33.2861C136.016 33.2861 136.743 33.1209 137.425 32.7905C138.107 32.4601 138.662 31.9846 139.091 31.362C139.522 30.7394 139.736 29.9839 139.736 29.0954V26.6575C139.465 26.7723 139.181 26.8791 138.879 26.9819C138.579 27.0826 138.259 27.1793 137.92 27.268C137.583 27.3566 137.226 27.4392 136.852 27.5158C136.478 27.5924 136.088 27.6609 135.683 27.7253C134.897 27.8523 134.254 28.0578 133.757 28.3439C133.26 28.63 132.892 28.9785 132.652 29.3916C132.413 29.8046 132.294 30.2639 132.294 30.7717C132.294 31.5836 132.57 32.2062 133.122 32.6374C133.673 33.0685 134.381 33.2841 135.24 33.2841L135.242 33.2861Z" fill="white"/>
<path opacity="0.4" d="M162.834 39.0121C162.38 39.1511 161.735 39.3224 160.897 39.5258C160.059 39.7293 159.063 39.8623 157.913 39.9268C155.588 40.0537 153.636 39.8019 152.057 39.1733C150.479 38.5446 149.292 37.5514 148.495 36.1934C147.7 34.8354 147.314 33.133 147.339 31.09V17.7522H143.636V10.096H147.339V3.24579H157.473V10.096H162.345V17.7522H157.473V30.0987C157.473 30.5057 157.539 30.8442 157.676 31.1182C157.81 31.3902 158.017 31.5937 158.299 31.7266C158.58 31.8596 158.942 31.9281 159.383 31.9281C159.689 31.9281 160.045 31.8898 160.457 31.8133C160.866 31.7367 161.17 31.6743 161.365 31.6219L162.834 39.0121Z" fill="white"/>
<path opacity="0.3" d="M174.188 29.7804C174.139 29.8731 174.09 29.9637 174.038 30.0504C173.702 30.6185 173.287 31.0577 172.79 31.368C172.217 31.7267 171.561 31.906 170.816 31.906C169.939 31.906 169.173 31.644 168.515 31.1222C167.858 30.6004 167.345 29.8126 166.981 28.7609C166.615 27.7092 166.431 26.3895 166.431 24.8039C166.431 23.2183 166.615 21.8986 166.981 20.8469C167.345 19.7952 167.858 19.0094 168.515 18.4856C169.173 17.9637 169.939 17.7018 170.816 17.7018C171.937 17.7018 172.855 18.1027 173.566 18.9006C173.739 19.096 173.897 19.3136 174.038 19.5514C174.468 20.2908 174.735 21.2357 174.837 22.3862H184.191C184.179 19.8677 183.618 17.6736 182.509 15.8039C181.402 13.9342 179.839 12.4856 177.824 11.46C176.68 10.8778 175.417 10.4607 174.038 10.2089C172.985 10.0154 171.861 9.92075 170.67 9.92075C167.626 9.92075 165.018 10.5473 162.851 11.7985C160.682 13.0517 159.02 14.8025 157.864 17.051C156.707 19.2975 156.128 21.9087 156.128 24.8784C156.128 27.8482 156.707 30.4614 157.864 32.7078C159.02 34.9563 160.682 36.7072 162.851 37.9604C165.018 39.2136 167.626 39.8381 170.67 39.8381C171.943 39.8381 173.135 39.7293 174.244 39.5117C175.558 39.2579 176.756 38.8489 177.842 38.2908C179.845 37.2572 181.396 35.7945 182.492 33.8986C183.503 32.1498 184.064 30.1189 184.171 27.8059V27.2216H174.837C174.763 28.229 174.546 29.0813 174.188 29.7804Z" fill="white"/>
<path opacity="0.2" d="M201.467 15.0866C200.641 13.4305 199.481 12.131 197.987 11.188C196.492 10.2471 194.734 9.77367 192.713 9.77367C190.692 9.77367 188.798 10.2995 187.297 11.3512C185.797 12.4029 184.725 13.8637 184.08 15.7374H183.782V0.42511H174.038V39.5117H184.171V23.0571C184.183 22.092 184.359 21.2639 184.698 20.5708C185.035 19.8798 185.514 19.3459 186.134 18.9711C186.756 18.5984 187.477 18.411 188.301 18.411C189.603 18.411 190.608 18.822 191.316 19.6481C192.021 20.4741 192.368 21.6105 192.357 23.0571V39.5117H202.685V20.7824C202.697 18.6427 202.292 16.7448 201.467 15.0866Z" fill="white"/>
<g opacity="0.1">
<path d="M212.999 39.9981C211.618 39.9981 210.437 39.5091 209.455 38.5331C208.473 37.5552 207.987 36.3661 208 34.9639C207.989 33.5978 208.473 32.4277 209.455 31.4574C210.437 30.4871 211.618 30 212.999 30C214.308 30 215.467 30.4852 216.473 31.4574C217.479 32.4277 217.989 33.5978 218 34.9639C217.989 35.8999 217.747 36.7466 217.276 37.5095C216.806 38.2705 216.196 38.8756 215.446 39.3265C214.696 39.7755 213.88 40 212.999 40V39.9981Z" fill="white"/>
</g>
<path opacity="0.2" d="M223.31 39.6333V10.3808H232.963V15.9416H233.257C233.845 14.1142 234.853 12.6655 236.278 11.5997C237.702 10.5339 239.398 10 241.362 10C243.326 10 245.065 10.542 246.501 11.6279C247.937 12.7139 248.805 14.1504 249.099 15.9416H249.393C249.873 14.1504 250.892 12.7139 252.451 11.6279C254.01 10.542 255.84 10 257.941 10C260.655 10 262.856 10.9026 264.545 12.7038C266.233 14.5071 267.079 16.9066 267.079 19.9026V39.6333H256.91V22.5682C256.91 21.2868 256.596 20.2794 255.97 19.55C255.345 18.8207 254.503 18.454 253.447 18.454C252.39 18.454 251.578 18.8187 250.97 19.55C250.362 20.2794 250.058 21.2868 250.058 22.5682V39.6333H240.331V22.5682C240.331 21.2868 240.017 20.2794 239.392 19.55C238.766 18.8207 237.924 18.454 236.868 18.454C236.168 18.454 235.566 18.6192 235.063 18.9496C234.561 19.2801 234.171 19.7535 233.894 20.368C233.617 20.9846 233.479 21.7179 233.479 22.5682V39.6333H223.31Z" fill="white"/>
<path opacity="0.2" d="M297.903 27.4459V25.0081C297.903 22.683 297.572 20.5957 296.909 18.7421C296.245 16.8885 295.299 15.3109 294.072 14.0094C292.844 12.7079 291.363 11.7146 289.632 11.0275C287.9 10.3425 285.967 10 283.829 10C280.905 10 278.37 10.6286 276.22 11.8858C274.073 13.143 272.409 14.9019 271.23 17.1605C270.05 19.4211 269.46 22.0625 269.46 25.0826C269.46 28.1028 270.047 30.9335 271.22 33.186C272.393 35.4406 274.069 37.1672 276.25 38.368C278.428 39.5668 281.028 40.1672 284.051 40.1672C286.666 40.1672 288.954 39.7582 290.913 38.9382C292.871 38.1202 294.446 36.9637 295.637 35.4728C296.829 33.9799 297.583 32.2189 297.903 30.188H288.619C288.422 30.7341 288.114 31.1995 287.697 31.5863C287.28 31.9752 286.779 32.2693 286.196 32.4728C285.614 32.6763 284.971 32.777 284.271 32.777C283.263 32.777 282.404 32.5675 281.693 32.1484C280.979 31.7294 280.434 31.1531 280.052 30.4157C279.672 29.6803 279.483 28.8422 279.483 27.9013V27.4459H297.903ZM280.136 19.4271C280.547 18.7925 281.096 18.2948 281.784 17.9322C282.472 17.5695 283.226 17.3882 284.051 17.3882C284.875 17.3882 285.657 17.5695 286.325 17.9322C286.995 18.2948 287.529 18.7965 287.929 19.4372C288.327 20.0779 288.533 20.8173 288.545 21.6555H279.483C279.506 20.8052 279.724 20.0618 280.136 19.4271Z" fill="white"/>
</g>
<defs>
<clipPath id="clip0_370_136">
<rect width="300" height="39.9731" fill="white"/>
</clipPath>
</defs>
</svg>
