<svg width="120" height="120" viewBox="0 0 120 120" fill="none" xmlns="http://www.w3.org/2000/svg">
    <path
        d="M12 15C12 12.2386 14.2386 10 17 10H62C89.6142 10 112 32.3858 112 60V60C112 87.6142 89.6142 110 62 110V110C34.3858 110 12 87.6142 12 60V15Z"
        fill="#555B77" />
    <path opacity="0.9"
        d="M79.4535 48.6908C77.8023 47.6965 75.9866 47.0663 74.0042 46.8022C72.0219 46.5381 69.8563 46.6686 67.5078 47.1898C66.143 47.4933 64.7109 47.9461 63.2114 48.5481C62.1288 48.9784 61.0112 49.4863 59.8566 50.0734L55.7676 52.1392C54.589 52.746 53.5256 53.2133 52.5757 53.5388C51.6276 53.8666 50.7848 54.0517 50.0428 54.1017C49.3029 54.1499 48.6545 54.0517 48.0997 53.8054C47.5427 53.5609 47.0655 53.1646 46.6617 52.6177C46.1508 51.9666 45.873 51.2489 45.8229 50.4578C45.7747 49.669 46.0058 48.821 46.5159 47.9179C47.0261 47.0149 47.8724 46.0776 49.0524 45.112C50.9086 43.5931 52.6163 42.8585 54.1816 42.9066C55.0412 42.9336 55.8584 43.1535 56.6287 43.5697C57.2048 43.8777 57.7557 44.2928 58.2811 44.8192L58.461 44.9544L69.3997 36.0036C68.5576 34.9834 67.667 34.0819 66.7261 33.2969C65.0484 31.8875 63.2114 30.8531 61.2214 30.1924C58.1198 29.1612 54.8419 29.0762 51.3903 29.9315C47.9387 30.7868 44.5103 32.6095 41.1033 35.3974C37.6962 38.1853 35.2844 41.1302 33.6624 44.4039C32.0385 47.6753 31.3538 50.9463 31.6068 54.2106C31.8594 57.4788 33.1272 60.4924 35.4084 63.2491C38.1812 66.6689 41.4514 68.4846 45.2111 68.6912C48.9686 68.8995 53.0609 67.8926 57.4837 65.6741L62.4527 63.1706C64.3103 62.2454 65.8636 61.6069 67.1162 61.2596C68.367 60.9101 69.4028 60.823 70.2218 60.9962C71.039 61.167 71.7281 61.582 72.2874 62.2388C72.8556 62.9598 73.1519 63.7715 73.1805 64.6743C73.2073 65.5748 72.9374 66.5222 72.3675 67.5081C71.7995 68.4962 70.9039 69.4889 69.6802 70.4902C68.2253 71.6806 66.7792 72.4724 65.3441 72.8636C63.909 73.2548 62.5326 73.2328 61.2131 72.7952C59.8915 72.3594 58.6498 71.5006 57.4898 70.2209L46.6078 79.1253C49.6082 82.7655 52.8181 85.135 56.2326 86.2415C59.6492 87.3462 63.1803 87.3445 66.8257 86.2365C70.4693 85.1262 74.1264 83.0712 77.7951 80.0691C81.4639 77.0671 84.0038 74.1229 85.7026 71.0009C86.4601 69.6168 87.0226 68.2303 87.388 66.8433C87.8532 65.111 88.0135 63.3798 87.8728 61.6502C87.6194 58.5368 86.3258 55.5406 83.9939 52.6597C82.6187 51.0103 81.1066 49.6875 79.4535 48.6908Z"
        fill="white" />
</svg>