<svg width="62" height="62" viewBox="0 0 62 62" fill="none" xmlns="http://www.w3.org/2000/svg">
<g opacity="0.5">
<path d="M54.3333 1H7.66667C3.98477 1 1 3.98477 1 7.66667V54.3333C1 58.0152 3.98477 61 7.66667 61H54.3333C58.0152 61 61 58.0152 61 54.3333V7.66667C61 3.98477 58.0152 1 54.3333 1Z" stroke="white" stroke-width="2" stroke-linecap="round" stroke-linejoin="round"/>
<path d="M19.3335 24.3333C22.0949 24.3333 24.3335 22.0947 24.3335 19.3333C24.3335 16.5719 22.0949 14.3333 19.3335 14.3333C16.5721 14.3333 14.3335 16.5719 14.3335 19.3333C14.3335 22.0947 16.5721 24.3333 19.3335 24.3333Z" stroke="white" stroke-width="2" stroke-linecap="round" stroke-linejoin="round"/>
<path d="M61.0001 41L44.3334 24.3333L7.66675 61" stroke="white" stroke-width="2" stroke-linecap="round" stroke-linejoin="round"/>
</g>
</svg>
